<?xml version="1.0" encoding="utf-8"?>
<!-- Generator: Adobe Illustrator 26.0.3, SVG Export Plug-In . SVG Version: 6.00 Build 0)  -->
<svg version="1.1" id="Livello_1" xmlns="http://www.w3.org/2000/svg" xmlns:xlink="http://www.w3.org/1999/xlink" x="0px" y="0px"
	 viewBox="0 0 512 512" style="enable-background:new 0 0 512 512;" xml:space="preserve">
<style type="text/css">
	.st0{fill:#5B6275;}
</style>
<g id="_1">
	<path class="st0" d="M262.1,378c-2.6,0-5.1-0.7-7.3-1.9c-72.9-40.8-118-117.7-118.1-201.2c0-1.7,0-3.3,0.1-5
		c0.8-37.5,14.8-69.1,40.5-91.4C199.9,58.8,230.1,48,262.1,48s62.2,10.8,84.9,30.5c25.7,22.3,39.7,53.9,40.5,91.4l0,0
		c0,1.7,0.1,3.3,0.1,5c-0.1,83.5-45.3,160.5-118.1,201.2C267.2,377.3,264.7,378,262.1,378z M262.1,78c-24.9,0-48,8.2-65.2,23.1
		c-19.1,16.6-29.6,40.6-30.2,69.4c0,1.4,0,2.9,0,4.4c0.1,69.6,36.2,134.2,95.4,170.7c59.3-36.5,95.4-101.1,95.4-170.7
		c0-1.5,0-2.9,0-4.4l0,0c-0.6-28.8-11-52.8-30.2-69.4C310.1,86.2,287,78,262.1,78z"/>
	<path class="st0" d="M262.4,247.4c-39.8,0-72.1-32.3-72.1-72.1s32.3-72.1,72.1-72.1c39.8,0,72.1,32.3,72.1,72.1
		C334.5,215.1,302.2,247.4,262.4,247.4z M262.4,133.1c-23.3,0-42.1,18.9-42.1,42.1s18.9,42.1,42.1,42.1s42.1-18.9,42.1-42.1
		c0,0,0,0,0,0C304.5,152,285.7,133.2,262.4,133.1z"/>
	<path class="st0" d="M262.1,450c-40.5,0-78.8-8.1-107.8-22.7C122,411,104.2,388.2,104.2,363c0-33.4,31.3-62.3,83.6-77.2
		c8-2.1,16.2,2.7,18.3,10.7c2,7.8-2.4,15.8-10.1,18.1c-37.6,10.7-61.8,29.6-61.8,48.3c0,27,52.5,57,127.9,57S390,390,390,363
		c0-18.6-24.3-37.6-61.8-48.3c-8-2.3-12.6-10.6-10.3-18.5c2.3-8,10.6-12.6,18.5-10.3c52.4,14.9,83.6,43.7,83.6,77.2
		c0,25.2-17.8,48-50.1,64.3C340.9,441.9,302.6,450,262.1,450z"/>
</g>
</svg>
